<?xml version="1.0" encoding="UTF-8" standalone="no"?><svg xmlns="http://www.w3.org/2000/svg" xmlns:xlink="http://www.w3.org/1999/xlink" contentScriptType="application/ecmascript" contentStyleType="text/css" height="512px" preserveAspectRatio="none" style="width:733px;height:512px;" version="1.1" viewBox="0 0 733 512" width="733px" zoomAndPan="magnify"><defs><filter height="300%" id="f1qjl86m9e0joo" width="300%" x="-1" y="-1"><feGaussianBlur result="blurOut" stdDeviation="2.0"/><feColorMatrix in="blurOut" result="blurOut2" type="matrix" values="0 0 0 0 0 0 0 0 0 0 0 0 0 0 0 0 0 0 .4 0"/><feOffset dx="4.0" dy="4.0" in="blurOut2" result="blurOut3"/><feBlend in="SourceGraphic" in2="blurOut3" mode="normal"/></filter></defs><g><!--MD5=[8413f8248b2da7966d2de021109ec289]
class users--><rect fill="#FEFECE" filter="url(#f1qjl86m9e0joo)" height="92.608" id="users" style="stroke: #A80036; stroke-width: 1.5;" width="128" x="446.5" y="8"/><ellipse cx="483.1" cy="30.3761" fill="#ADD1B2" rx="11" ry="11" style="stroke: #A80036; stroke-width: 1.0;"/><path d="M479.7563,36.8761 L486.2406,36.8761 L486.2406,34.7667 L482.2875,34.7667 L482.2875,31.4074 L485.475,31.4074 L485.475,29.298 L482.2875,29.298 L482.2875,26.3605 L486.1,26.3605 L486.1,24.2511 L479.7563,24.2511 L479.7563,36.8761 Z "/><text fill="#000000" font-family="sans-serif" font-size="12" lengthAdjust="spacingAndGlyphs" textLength="31" x="510.4" y="26.9201">users</text><text fill="#000000" font-family="sans-serif" font-size="12" lengthAdjust="spacingAndGlyphs" textLength="48" x="501.9" y="44.2962">ユーザー</text><line style="stroke: #A80036; stroke-width: 1.5;" x1="447.5" x2="573.5" y1="52.7522" y2="52.7522"/><ellipse cx="457.5" cy="63.7522" fill="none" rx="3" ry="3" style="stroke: #038048; stroke-width: 1.0;"/><text fill="#000000" font-family="sans-serif" font-size="11" lengthAdjust="spacingAndGlyphs" textLength="34" x="466.5" y="69.5121">id [PK]</text><line style="stroke: #A80036; stroke-width: 1.0;" x1="447.5" x2="573.5" y1="76.6801" y2="76.6801"/><text fill="#000000" font-family="sans-serif" font-size="11" lengthAdjust="spacingAndGlyphs" textLength="116" x="452.5" y="93.44">username [ユーザー名]</text><!--MD5=[49762a54e1b04ffe7db6f74326b29b36]
class roles--><rect fill="#FEFECE" filter="url(#f1qjl86m9e0joo)" height="92.608" id="roles" style="stroke: #A80036; stroke-width: 1.5;" width="121" x="290" y="8"/><ellipse cx="328.85" cy="30.3761" fill="#ADD1B2" rx="11" ry="11" style="stroke: #A80036; stroke-width: 1.0;"/><path d="M325.5063,36.8761 L331.9906,36.8761 L331.9906,34.7667 L328.0375,34.7667 L328.0375,31.4074 L331.225,31.4074 L331.225,29.298 L328.0375,29.298 L328.0375,26.3605 L331.85,26.3605 L331.85,24.2511 L325.5063,24.2511 L325.5063,36.8761 Z "/><text fill="#000000" font-family="sans-serif" font-size="12" lengthAdjust="spacingAndGlyphs" textLength="28" x="352.15" y="26.9201">roles</text><text fill="#000000" font-family="sans-serif" font-size="12" lengthAdjust="spacingAndGlyphs" textLength="36" x="348.15" y="44.2962">ロール</text><line style="stroke: #A80036; stroke-width: 1.5;" x1="291" x2="410" y1="52.7522" y2="52.7522"/><ellipse cx="301" cy="63.7522" fill="none" rx="3" ry="3" style="stroke: #038048; stroke-width: 1.0;"/><text fill="#000000" font-family="sans-serif" font-size="11" lengthAdjust="spacingAndGlyphs" textLength="34" x="310" y="69.5121">id [PK]</text><line style="stroke: #A80036; stroke-width: 1.0;" x1="291" x2="410" y1="76.6801" y2="76.6801"/><text fill="#000000" font-family="sans-serif" font-size="11" lengthAdjust="spacingAndGlyphs" textLength="109" x="296" y="93.44">role_name [ロール名]</text><!--MD5=[42dff7dc659d7999f4fa6efcfdeeb567]
class supplies--><rect fill="#FEFECE" filter="url(#f1qjl86m9e0joo)" height="140.3916" id="supplies" style="stroke: #A80036; stroke-width: 1.5;" width="143" x="6" y="161"/><ellipse cx="50.25" cy="183.3761" fill="#ADD1B2" rx="11" ry="11" style="stroke: #A80036; stroke-width: 1.0;"/><path d="M46.9063,189.8761 L53.3906,189.8761 L53.3906,187.7667 L49.4375,187.7667 L49.4375,184.4074 L52.625,184.4074 L52.625,182.298 L49.4375,182.298 L49.4375,179.3605 L53.25,179.3605 L53.25,177.2511 L46.9063,177.2511 L46.9063,189.8761 Z "/><text fill="#000000" font-family="sans-serif" font-size="12" lengthAdjust="spacingAndGlyphs" textLength="46" x="70.75" y="179.9201">supplies</text><text fill="#000000" font-family="sans-serif" font-size="12" lengthAdjust="spacingAndGlyphs" textLength="24" x="81.75" y="197.2962">納品</text><line style="stroke: #A80036; stroke-width: 1.5;" x1="7" x2="148" y1="205.7522" y2="205.7522"/><ellipse cx="17" cy="216.7522" fill="none" rx="3" ry="3" style="stroke: #038048; stroke-width: 1.0;"/><text fill="#000000" font-family="sans-serif" font-size="11" lengthAdjust="spacingAndGlyphs" textLength="34" x="26" y="222.5121">id [PK]</text><line style="stroke: #A80036; stroke-width: 1.0;" x1="7" x2="148" y1="229.6801" y2="229.6801"/><text fill="#000000" font-family="sans-serif" font-size="11" lengthAdjust="spacingAndGlyphs" textLength="113" x="12" y="246.44">supply_name [納品名]</text><text fill="#000000" font-family="sans-serif" font-size="11" lengthAdjust="spacingAndGlyphs" textLength="112" x="12" y="262.3679">supplier_id [納品者ID]</text><text fill="#000000" font-family="sans-serif" font-size="11" lengthAdjust="spacingAndGlyphs" textLength="131" x="12" y="278.2958">supplier_name [納品者名]</text><text fill="#000000" font-family="sans-serif" font-size="11" lengthAdjust="spacingAndGlyphs" textLength="96" x="12" y="294.2237">status [ステータス]</text><!--MD5=[ff69a6cca6f7e52e5ea254e6cd5fc379]
class products--><rect fill="#FEFECE" filter="url(#f1qjl86m9e0joo)" height="108.5359" id="products" style="stroke: #A80036; stroke-width: 1.5;" width="132" x="184.5" y="176.5"/><ellipse cx="222" cy="198.8761" fill="#ADD1B2" rx="11" ry="11" style="stroke: #A80036; stroke-width: 1.0;"/><path d="M218.6563,205.3761 L225.1406,205.3761 L225.1406,203.2667 L221.1875,203.2667 L221.1875,199.9074 L224.375,199.9074 L224.375,197.798 L221.1875,197.798 L221.1875,194.8605 L225,194.8605 L225,192.7511 L218.6563,192.7511 L218.6563,205.3761 Z "/><text fill="#000000" font-family="sans-serif" font-size="12" lengthAdjust="spacingAndGlyphs" textLength="50" x="241" y="195.4201">products</text><text fill="#000000" font-family="sans-serif" font-size="12" lengthAdjust="spacingAndGlyphs" textLength="24" x="254" y="212.7962">商品</text><line style="stroke: #A80036; stroke-width: 1.5;" x1="185.5" x2="315.5" y1="221.2522" y2="221.2522"/><ellipse cx="195.5" cy="232.2522" fill="none" rx="3" ry="3" style="stroke: #038048; stroke-width: 1.0;"/><text fill="#000000" font-family="sans-serif" font-size="11" lengthAdjust="spacingAndGlyphs" textLength="34" x="204.5" y="238.0121">id [PK]</text><line style="stroke: #A80036; stroke-width: 1.0;" x1="185.5" x2="315.5" y1="245.1801" y2="245.1801"/><text fill="#000000" font-family="sans-serif" font-size="11" lengthAdjust="spacingAndGlyphs" textLength="120" x="190.5" y="261.94">product_name [商品名]</text><text fill="#000000" font-family="sans-serif" font-size="11" lengthAdjust="spacingAndGlyphs" textLength="96" x="190.5" y="277.8679">status [ステータス]</text><!--MD5=[20acf304c87f522547e857e16520f091]
class orders--><rect fill="#FEFECE" filter="url(#f1qjl86m9e0joo)" height="140.3916" id="orders" style="stroke: #A80036; stroke-width: 1.5;" width="139" x="352" y="161"/><ellipse cx="398.75" cy="183.3761" fill="#ADD1B2" rx="11" ry="11" style="stroke: #A80036; stroke-width: 1.0;"/><path d="M395.4063,189.8761 L401.8906,189.8761 L401.8906,187.7667 L397.9375,187.7667 L397.9375,184.4074 L401.125,184.4074 L401.125,182.298 L397.9375,182.298 L397.9375,179.3605 L401.75,179.3605 L401.75,177.2511 L395.4063,177.2511 L395.4063,189.8761 Z "/><text fill="#000000" font-family="sans-serif" font-size="12" lengthAdjust="spacingAndGlyphs" textLength="37" x="419.25" y="179.9201">orders</text><text fill="#000000" font-family="sans-serif" font-size="12" lengthAdjust="spacingAndGlyphs" textLength="24" x="425.75" y="197.2962">注文</text><line style="stroke: #A80036; stroke-width: 1.5;" x1="353" x2="490" y1="205.7522" y2="205.7522"/><ellipse cx="363" cy="216.7522" fill="none" rx="3" ry="3" style="stroke: #038048; stroke-width: 1.0;"/><text fill="#000000" font-family="sans-serif" font-size="11" lengthAdjust="spacingAndGlyphs" textLength="34" x="372" y="222.5121">id [PK]</text><line style="stroke: #A80036; stroke-width: 1.0;" x1="353" x2="490" y1="229.6801" y2="229.6801"/><text fill="#000000" font-family="sans-serif" font-size="11" lengthAdjust="spacingAndGlyphs" textLength="106" x="358" y="246.44">order_name [注文名]</text><text fill="#000000" font-family="sans-serif" font-size="11" lengthAdjust="spacingAndGlyphs" textLength="108" x="358" y="262.3679">orderer_id [注文者ID]</text><text fill="#000000" font-family="sans-serif" font-size="11" lengthAdjust="spacingAndGlyphs" textLength="127" x="358" y="278.2958">orderer_name [注文者名]</text><text fill="#000000" font-family="sans-serif" font-size="11" lengthAdjust="spacingAndGlyphs" textLength="96" x="358" y="294.2237">status [ステータス]</text><!--MD5=[52eb7aca5120c0886d7e8733040e2634]
class payments--><rect fill="#FEFECE" filter="url(#f1qjl86m9e0joo)" height="140.3916" id="payments" style="stroke: #A80036; stroke-width: 1.5;" width="147" x="500" y="361"/><ellipse cx="541.55" cy="383.3761" fill="#ADD1B2" rx="11" ry="11" style="stroke: #A80036; stroke-width: 1.0;"/><path d="M538.2063,389.8761 L544.6906,389.8761 L544.6906,387.7667 L540.7375,387.7667 L540.7375,384.4074 L543.925,384.4074 L543.925,382.298 L540.7375,382.298 L540.7375,379.3605 L544.55,379.3605 L544.55,377.2511 L538.2063,377.2511 L538.2063,389.8761 Z "/><text fill="#000000" font-family="sans-serif" font-size="12" lengthAdjust="spacingAndGlyphs" textLength="56" x="561.45" y="379.9201">payments</text><text fill="#000000" font-family="sans-serif" font-size="12" lengthAdjust="spacingAndGlyphs" textLength="36" x="571.45" y="397.2962">支払い</text><line style="stroke: #A80036; stroke-width: 1.5;" x1="501" x2="646" y1="405.7522" y2="405.7522"/><ellipse cx="511" cy="416.7522" fill="none" rx="3" ry="3" style="stroke: #038048; stroke-width: 1.0;"/><text fill="#000000" font-family="sans-serif" font-size="11" lengthAdjust="spacingAndGlyphs" textLength="34" x="520" y="422.5121">id [PK]</text><line style="stroke: #A80036; stroke-width: 1.0;" x1="501" x2="646" y1="429.6801" y2="429.6801"/><text fill="#000000" font-family="sans-serif" font-size="11" lengthAdjust="spacingAndGlyphs" textLength="135" x="506" y="446.44">payment_name [支払い名]</text><text fill="#000000" font-family="sans-serif" font-size="11" lengthAdjust="spacingAndGlyphs" textLength="110" x="506" y="462.3679">payer_id [支払い者ID]</text><text fill="#000000" font-family="sans-serif" font-size="11" lengthAdjust="spacingAndGlyphs" textLength="129" x="506" y="478.2958">payer_name [支払い者名]</text><text fill="#000000" font-family="sans-serif" font-size="11" lengthAdjust="spacingAndGlyphs" textLength="96" x="506" y="494.2237">status [ステータス]</text><!--MD5=[047e127ae53bb4573790e4382184e174]
class deliveries--><rect fill="#FEFECE" filter="url(#f1qjl86m9e0joo)" height="140.3916" id="deliveries" style="stroke: #A80036; stroke-width: 1.5;" width="146" x="526.5" y="161"/><ellipse cx="568.5" cy="183.3761" fill="#ADD1B2" rx="11" ry="11" style="stroke: #A80036; stroke-width: 1.0;"/><path d="M565.1563,189.8761 L571.6406,189.8761 L571.6406,187.7667 L567.6875,187.7667 L567.6875,184.4074 L570.875,184.4074 L570.875,182.298 L567.6875,182.298 L567.6875,179.3605 L571.5,179.3605 L571.5,177.2511 L565.1563,177.2511 L565.1563,189.8761 Z "/><text fill="#000000" font-family="sans-serif" font-size="12" lengthAdjust="spacingAndGlyphs" textLength="54" x="588.5" y="179.9201">deliveries</text><text fill="#000000" font-family="sans-serif" font-size="12" lengthAdjust="spacingAndGlyphs" textLength="24" x="603.5" y="197.2962">配送</text><line style="stroke: #A80036; stroke-width: 1.5;" x1="527.5" x2="671.5" y1="205.7522" y2="205.7522"/><ellipse cx="537.5" cy="216.7522" fill="none" rx="3" ry="3" style="stroke: #038048; stroke-width: 1.0;"/><text fill="#000000" font-family="sans-serif" font-size="11" lengthAdjust="spacingAndGlyphs" textLength="34" x="546.5" y="222.5121">id [PK]</text><line style="stroke: #A80036; stroke-width: 1.0;" x1="527.5" x2="671.5" y1="229.6801" y2="229.6801"/><text fill="#000000" font-family="sans-serif" font-size="11" lengthAdjust="spacingAndGlyphs" textLength="119" x="532.5" y="246.44">delivery_name [配送名]</text><text fill="#000000" font-family="sans-serif" font-size="11" lengthAdjust="spacingAndGlyphs" textLength="115" x="532.5" y="262.3679">deliverer_id [配送者ID]</text><text fill="#000000" font-family="sans-serif" font-size="11" lengthAdjust="spacingAndGlyphs" textLength="134" x="532.5" y="278.2958">deliverer_name [配送者名]</text><text fill="#000000" font-family="sans-serif" font-size="11" lengthAdjust="spacingAndGlyphs" textLength="96" x="532.5" y="294.2237">status [ステータス]</text><!--MD5=[26c1d47ea0f99f7b8c5365a9c85173b9]
link roles to users--><path d="M419.13,54.5 C425.53,54.5 431.94,54.5 438.34,54.5 " fill="none" id="roles-users" style="stroke: #A80036; stroke-width: 1.0;"/><line style="stroke: #A80036; stroke-width: 1.0;" x1="442.45" x2="442.45" y1="50.5" y2="58.5"/><line style="stroke: #A80036; stroke-width: 1.0;" x1="439.45" x2="439.45" y1="50.5" y2="58.5"/><line style="stroke: #A80036; stroke-width: 1.0;" x1="438.45" x2="446.45" y1="54.5" y2="54.5"/><line style="stroke: #A80036; stroke-width: 1.0;" x1="419.12" x2="411.1307" y1="54.4857" y2="60.5"/><line style="stroke: #A80036; stroke-width: 1.0;" x1="419.12" x2="411.1093" y1="54.4857" y2="48.5"/><line style="stroke: #A80036; stroke-width: 1.0;" x1="419.12" x2="411.12" y1="54.4857" y2="54.5"/><ellipse cx="425.12" cy="54.475" fill="none" rx="4" ry="4" style="stroke: #A80036; stroke-width: 1.0;"/><!--MD5=[f44894528747bec27dc44aca2ad2b0fb]
link users to supplies--><path d="M439.13,96.6 C435.58,98.17 432.02,99.65 428.5,101 C316.95,143.74 274.46,109.87 166.5,161 C163.04,162.64 159.58,164.43 156.16,166.35 " fill="none" id="users-supplies" style="stroke: #A80036; stroke-width: 1.0;"/><line style="stroke: #A80036; stroke-width: 1.0;" x1="156.0724" x2="152.2032" y1="166.3857" y2="175.6068"/><line style="stroke: #A80036; stroke-width: 1.0;" x1="156.0724" x2="146.1368" y1="166.3857" y2="165.2532"/><line style="stroke: #A80036; stroke-width: 1.0;" x1="156.0724" x2="149.17" y1="166.3857" y2="170.43"/><ellipse cx="161.2493" cy="163.3525" fill="none" rx="4" ry="4" style="stroke: #A80036; stroke-width: 1.0;"/><line style="stroke: #A80036; stroke-width: 1.0;" x1="441.1049" x2="444.4465" y1="91.2965" y2="98.5651"/><line style="stroke: #A80036; stroke-width: 1.0;" x1="438.3791" x2="441.7207" y1="92.5496" y2="99.8182"/><line style="stroke: #A80036; stroke-width: 1.0;" x1="439.1413" x2="446.41" y1="96.6016" y2="93.26"/><!--MD5=[fa3b22ffcbbae300940e875beb39074f]
link users to payments--><path d="M582.38,77.73 C621.81,94.02 667.29,120.49 690.5,161 C721.43,214.99 712.9,242.95 690.5,301 C682.04,322.92 667.93,343.42 652.39,361.34 " fill="none" id="users-payments" style="stroke: #A80036; stroke-width: 1.0;"/><line style="stroke: #A80036; stroke-width: 1.0;" x1="652.3964" x2="651.5468" y1="361.351" y2="371.3148"/><line style="stroke: #A80036; stroke-width: 1.0;" x1="652.3964" x2="642.5932" y1="361.351" y2="363.3252"/><line style="stroke: #A80036; stroke-width: 1.0;" x1="652.3964" x2="647.07" y1="361.351" y2="367.32"/><ellipse cx="656.3912" cy="356.8742" fill="none" rx="4" ry="4" style="stroke: #A80036; stroke-width: 1.0;"/><line style="stroke: #A80036; stroke-width: 1.0;" x1="576.8049" x2="579.7809" y1="79.8109" y2="72.3851"/><line style="stroke: #A80036; stroke-width: 1.0;" x1="579.5896" x2="582.5656" y1="80.927" y2="73.5011"/><line style="stroke: #A80036; stroke-width: 1.0;" x1="582.0058" x2="574.58" y1="77.5861" y2="74.61"/><!--MD5=[4c502da0134721951f07b9613513a7bb]
link users to orders--><path d="M483.34,108.74 C476.15,122.85 468.24,138.36 460.55,153.44 " fill="none" id="users-orders" style="stroke: #A80036; stroke-width: 1.0;"/><line style="stroke: #A80036; stroke-width: 1.0;" x1="460.4248" x2="462.1349" y1="153.6734" y2="163.5261"/><line style="stroke: #A80036; stroke-width: 1.0;" x1="460.4248" x2="451.4451" y1="153.6734" y2="158.0739"/><line style="stroke: #A80036; stroke-width: 1.0;" x1="460.4248" x2="456.79" y1="153.6734" y2="160.8"/><ellipse cx="463.151" cy="148.3285" fill="none" rx="4" ry="4" style="stroke: #A80036; stroke-width: 1.0;"/><line style="stroke: #A80036; stroke-width: 1.0;" x1="481.7379" x2="488.8617" y1="103.0917" y2="106.7321"/><line style="stroke: #A80036; stroke-width: 1.0;" x1="480.3728" x2="487.4965" y1="105.7631" y2="109.4035"/><line style="stroke: #A80036; stroke-width: 1.0;" x1="483.4796" x2="487.12" y1="108.4737" y2="101.35"/><!--MD5=[0acf92d720b57044a2c7232d0c52d5f1]
link users to deliveries--><path d="M537.66,108.74 C544.85,122.85 552.76,138.36 560.45,153.44 " fill="none" id="users-deliveries" style="stroke: #A80036; stroke-width: 1.0;"/><line style="stroke: #A80036; stroke-width: 1.0;" x1="560.5752" x2="569.5549" y1="153.6734" y2="158.0739"/><line style="stroke: #A80036; stroke-width: 1.0;" x1="560.5752" x2="558.8651" y1="153.6734" y2="163.5261"/><line style="stroke: #A80036; stroke-width: 1.0;" x1="560.5752" x2="564.21" y1="153.6734" y2="160.8"/><ellipse cx="557.849" cy="148.3285" fill="none" rx="4" ry="4" style="stroke: #A80036; stroke-width: 1.0;"/><line style="stroke: #A80036; stroke-width: 1.0;" x1="532.1383" x2="539.2621" y1="106.7321" y2="103.0917"/><line style="stroke: #A80036; stroke-width: 1.0;" x1="533.5035" x2="540.6272" y1="109.4035" y2="105.7631"/><line style="stroke: #A80036; stroke-width: 1.0;" x1="537.5204" x2="533.88" y1="108.4737" y2="101.35"/><!--MD5=[e73727faabeb9f500ae420af64641bf1]
link supplies to products--><path d="M156.29,231 C163.31,231 170.33,231 177.35,231 " fill="none" id="supplies-products" style="stroke: #A80036; stroke-width: 1.0;"/><line style="stroke: #A80036; stroke-width: 1.0;" x1="180.37" x2="180.37" y1="227" y2="235"/><line style="stroke: #A80036; stroke-width: 1.0;" x1="177.37" x2="177.37" y1="227" y2="235"/><line style="stroke: #A80036; stroke-width: 1.0;" x1="176.37" x2="184.37" y1="231" y2="231"/><line style="stroke: #A80036; stroke-width: 1.0;" x1="153.13" x2="153.13" y1="235" y2="227"/><line style="stroke: #A80036; stroke-width: 1.0;" x1="156.13" x2="156.13" y1="235" y2="227"/><line style="stroke: #A80036; stroke-width: 1.0;" x1="157.13" x2="149.13" y1="231" y2="231"/><!--MD5=[5cb7e3a788c7144725a0394a44e97c79]
link products to orders--><path d="M323.79,231 C330.8,231 337.82,231 344.84,231 " fill="none" id="products-orders" style="stroke: #A80036; stroke-width: 1.0;"/><line style="stroke: #A80036; stroke-width: 1.0;" x1="347.86" x2="347.86" y1="227" y2="235"/><line style="stroke: #A80036; stroke-width: 1.0;" x1="344.86" x2="344.86" y1="227" y2="235"/><line style="stroke: #A80036; stroke-width: 1.0;" x1="343.86" x2="351.86" y1="231" y2="231"/><line style="stroke: #A80036; stroke-width: 1.0;" x1="320.63" x2="320.63" y1="235" y2="227"/><line style="stroke: #A80036; stroke-width: 1.0;" x1="323.63" x2="323.63" y1="235" y2="227"/><line style="stroke: #A80036; stroke-width: 1.0;" x1="324.63" x2="316.63" y1="231" y2="231"/><!--MD5=[b8bac0f2b9a8def3bd79b8ab4a1fa567]
link orders to payments--><path d="M479.21,307.18 C491.25,322.86 503.94,339.38 515.97,355.06 " fill="none" id="orders-payments" style="stroke: #A80036; stroke-width: 1.0;"/><line style="stroke: #A80036; stroke-width: 1.0;" x1="521.1037" x2="514.7609" y1="355.1809" y2="360.0563"/><line style="stroke: #A80036; stroke-width: 1.0;" x1="519.2755" x2="512.9327" y1="352.8024" y2="357.6777"/><line style="stroke: #A80036; stroke-width: 1.0;" x1="515.4947" x2="520.37" y1="354.4472" y2="360.79"/><line style="stroke: #A80036; stroke-width: 1.0;" x1="473.9263" x2="480.2691" y1="306.8591" y2="301.9837"/><line style="stroke: #A80036; stroke-width: 1.0;" x1="475.7545" x2="482.0973" y1="309.2376" y2="304.3623"/><line style="stroke: #A80036; stroke-width: 1.0;" x1="479.5353" x2="474.66" y1="307.5928" y2="301.25"/><!--MD5=[6771e3689eeabc4f2966e48ec4469968]
link orders to deliveries--><path d="M498.17,231 C505.18,231 512.19,231 519.19,231 " fill="none" id="orders-deliveries" style="stroke: #A80036; stroke-width: 1.0;"/><line style="stroke: #A80036; stroke-width: 1.0;" x1="522.2" x2="522.2" y1="227" y2="235"/><line style="stroke: #A80036; stroke-width: 1.0;" x1="519.2" x2="519.2" y1="227" y2="235"/><line style="stroke: #A80036; stroke-width: 1.0;" x1="518.2" x2="526.2" y1="231" y2="231"/><line style="stroke: #A80036; stroke-width: 1.0;" x1="495.03" x2="495.03" y1="235" y2="227"/><line style="stroke: #A80036; stroke-width: 1.0;" x1="498.03" x2="498.03" y1="235" y2="227"/><line style="stroke: #A80036; stroke-width: 1.0;" x1="499.03" x2="491.03" y1="231" y2="231"/><!--MD5=[93b0ab50e668299406aa88fd5ad58ef3]
@startuml erd
entity users as "users\nユーザー" {
	+ id [PK]
	- -
	username [ユーザー名]
}

entity roles as "roles\nロール" {
	+ id [PK]
	- -
	role_name [ロール名]
}

entity supplies as "supplies\n納品" {
	+ id [PK]
	- -
	supply_name [納品名]
	supplier_id [納品者ID]
	supplier_name [納品者名]
	status [ステータス]
}

entity products as "products\n商品" {
	+ id [PK]
	- -
	product_name [商品名]
	status [ステータス]
}

entity orders as "orders\n注文" {
	+ id [PK]
	- -
	order_name [注文名]
	orderer_id [注文者ID]
	orderer_name [注文者名]
	status [ステータス]
}

entity payments as "payments\n支払い" {
	+ id [PK]
	- -
	payment_name [支払い名]
	payer_id [支払い者ID]
	payer_name [支払い者名]
	status [ステータス]
}

entity deliveries as "deliveries\n配送" {
	+ id [PK]
	- -
	delivery_name [配送名]
	deliverer_id [配送者ID]
	deliverer_name [配送者名]
	status [ステータス]
}


users ||-l-o{ roles
users ||-d-o{ supplies
users ||-d-o{ payments
users ||-d-o{ orders
users ||-d-o{ deliveries

supplies ||-|| products
products ||-|| orders
orders ||- -|| payments
orders ||-|| deliveries

@enduml

PlantUML version 1.2020.02(Sun Mar 01 19:22:07 JST 2020)
(GPL source distribution)
Java Runtime: OpenJDK Runtime Environment
JVM: OpenJDK 64-Bit Server VM
Java Version: 21.0.4+7-Ubuntu-1ubuntu224.04
Operating System: Linux
Default Encoding: UTF-8
Language: ja
Country: JP
--></g></svg>