<?xml version="1.0" encoding="UTF-8" standalone="no"?><svg xmlns="http://www.w3.org/2000/svg" xmlns:xlink="http://www.w3.org/1999/xlink" contentScriptType="application/ecmascript" contentStyleType="text/css" height="760px" preserveAspectRatio="none" style="width:686px;height:760px;" version="1.1" viewBox="0 0 686 760" width="686px" zoomAndPan="magnify"><defs><filter height="300%" id="f1pvzi3vpqi51" width="300%" x="-1" y="-1"><feGaussianBlur result="blurOut" stdDeviation="2.0"/><feColorMatrix in="blurOut" result="blurOut2" type="matrix" values="0 0 0 0 0 0 0 0 0 0 0 0 0 0 0 0 0 0 .4 0"/><feOffset dx="4.0" dy="4.0" in="blurOut2" result="blurOut3"/><feBlend in="SourceGraphic" in2="blurOut3" mode="normal"/></filter></defs><g><!--MD5=[8413f8248b2da7966d2de021109ec289]
class users--><rect fill="#FEFECE" filter="url(#f1pvzi3vpqi51)" height="92.608" id="users" style="stroke: #A80036; stroke-width: 1.5;" width="128" x="394" y="232"/><ellipse cx="430.6" cy="254.3761" fill="#ADD1B2" rx="11" ry="11" style="stroke: #A80036; stroke-width: 1.0;"/><path d="M427.2563,260.8761 L433.7406,260.8761 L433.7406,258.7667 L429.7875,258.7667 L429.7875,255.4074 L432.975,255.4074 L432.975,253.298 L429.7875,253.298 L429.7875,250.3605 L433.6,250.3605 L433.6,248.2511 L427.2563,248.2511 L427.2563,260.8761 Z "/><text fill="#000000" font-family="sans-serif" font-size="12" lengthAdjust="spacingAndGlyphs" textLength="31" x="457.9" y="250.9201">users</text><text fill="#000000" font-family="sans-serif" font-size="12" lengthAdjust="spacingAndGlyphs" textLength="48" x="449.4" y="268.2962">ユーザー</text><line style="stroke: #A80036; stroke-width: 1.5;" x1="395" x2="521" y1="276.7522" y2="276.7522"/><ellipse cx="405" cy="287.7522" fill="none" rx="3" ry="3" style="stroke: #038048; stroke-width: 1.0;"/><text fill="#000000" font-family="sans-serif" font-size="11" lengthAdjust="spacingAndGlyphs" textLength="34" x="414" y="293.5121">id [PK]</text><line style="stroke: #A80036; stroke-width: 1.0;" x1="395" x2="521" y1="300.6801" y2="300.6801"/><text fill="#000000" font-family="sans-serif" font-size="11" lengthAdjust="spacingAndGlyphs" textLength="116" x="400" y="317.44">username [ユーザー名]</text><!--MD5=[8739cefb37fa88296c52d839cadb2af0]
class address--><rect fill="#FEFECE" filter="url(#f1pvzi3vpqi51)" height="156.3195" id="address" style="stroke: #A80036; stroke-width: 1.5;" width="120" x="398" y="8"/><ellipse cx="426.5" cy="30.3761" fill="#ADD1B2" rx="11" ry="11" style="stroke: #A80036; stroke-width: 1.0;"/><path d="M423.1563,36.8761 L429.6406,36.8761 L429.6406,34.7667 L425.6875,34.7667 L425.6875,31.4074 L428.875,31.4074 L428.875,29.298 L425.6875,29.298 L425.6875,26.3605 L429.5,26.3605 L429.5,24.2511 L423.1563,24.2511 L423.1563,36.8761 Z "/><text fill="#000000" font-family="sans-serif" font-size="12" lengthAdjust="spacingAndGlyphs" textLength="58" x="443.5" y="26.9201">addresses</text><text fill="#000000" font-family="sans-serif" font-size="12" lengthAdjust="spacingAndGlyphs" textLength="24" x="460.5" y="44.2962">住所</text><line style="stroke: #A80036; stroke-width: 1.5;" x1="399" x2="517" y1="52.7522" y2="52.7522"/><ellipse cx="409" cy="63.7522" fill="none" rx="3" ry="3" style="stroke: #038048; stroke-width: 1.0;"/><text fill="#000000" font-family="sans-serif" font-size="11" lengthAdjust="spacingAndGlyphs" textLength="34" x="418" y="69.5121">id [PK]</text><line style="stroke: #A80036; stroke-width: 1.0;" x1="399" x2="517" y1="76.6801" y2="76.6801"/><text fill="#000000" font-family="sans-serif" font-size="11" lengthAdjust="spacingAndGlyphs" textLength="103" x="404" y="93.44">user_id [ユーザーID]</text><text fill="#000000" font-family="sans-serif" font-size="11" lengthAdjust="spacingAndGlyphs" textLength="101" x="404" y="109.3679">zip_code [郵便番号]</text><text fill="#000000" font-family="sans-serif" font-size="11" lengthAdjust="spacingAndGlyphs" textLength="108" x="404" y="125.2958">prefecture [都道府県]</text><text fill="#000000" font-family="sans-serif" font-size="11" lengthAdjust="spacingAndGlyphs" textLength="73" x="404" y="141.2237">city [市区町村]</text><text fill="#000000" font-family="sans-serif" font-size="11" lengthAdjust="spacingAndGlyphs" textLength="61" x="404" y="157.1516">street [番地]</text><!--MD5=[49762a54e1b04ffe7db6f74326b29b36]
class roles--><rect fill="#FEFECE" filter="url(#f1pvzi3vpqi51)" height="92.608" id="roles" style="stroke: #A80036; stroke-width: 1.5;" width="121" x="237.5" y="232"/><ellipse cx="276.35" cy="254.3761" fill="#ADD1B2" rx="11" ry="11" style="stroke: #A80036; stroke-width: 1.0;"/><path d="M273.0063,260.8761 L279.4906,260.8761 L279.4906,258.7667 L275.5375,258.7667 L275.5375,255.4074 L278.725,255.4074 L278.725,253.298 L275.5375,253.298 L275.5375,250.3605 L279.35,250.3605 L279.35,248.2511 L273.0063,248.2511 L273.0063,260.8761 Z "/><text fill="#000000" font-family="sans-serif" font-size="12" lengthAdjust="spacingAndGlyphs" textLength="28" x="299.65" y="250.9201">roles</text><text fill="#000000" font-family="sans-serif" font-size="12" lengthAdjust="spacingAndGlyphs" textLength="36" x="295.65" y="268.2962">ロール</text><line style="stroke: #A80036; stroke-width: 1.5;" x1="238.5" x2="357.5" y1="276.7522" y2="276.7522"/><ellipse cx="248.5" cy="287.7522" fill="none" rx="3" ry="3" style="stroke: #038048; stroke-width: 1.0;"/><text fill="#000000" font-family="sans-serif" font-size="11" lengthAdjust="spacingAndGlyphs" textLength="34" x="257.5" y="293.5121">id [PK]</text><line style="stroke: #A80036; stroke-width: 1.0;" x1="238.5" x2="357.5" y1="300.6801" y2="300.6801"/><text fill="#000000" font-family="sans-serif" font-size="11" lengthAdjust="spacingAndGlyphs" textLength="109" x="243.5" y="317.44">role_name [ロール名]</text><!--MD5=[6acf929ef701c35b7052a7ea38c64ad8]
class wallets--><rect fill="#FEFECE" filter="url(#f1pvzi3vpqi51)" height="108.5359" id="wallets" style="stroke: #A80036; stroke-width: 1.5;" width="115" x="557.5" y="224"/><ellipse cx="582.85" cy="246.3761" fill="#ADD1B2" rx="11" ry="11" style="stroke: #A80036; stroke-width: 1.0;"/><path d="M579.5063,252.8761 L585.9906,252.8761 L585.9906,250.7667 L582.0375,250.7667 L582.0375,247.4074 L585.225,247.4074 L585.225,245.298 L582.0375,245.298 L582.0375,242.3605 L585.85,242.3605 L585.85,240.2511 L579.5063,240.2511 L579.5063,252.8761 Z "/><text fill="#000000" font-family="sans-serif" font-size="12" lengthAdjust="spacingAndGlyphs" textLength="41" x="608.65" y="242.9201">wallets</text><text fill="#000000" font-family="sans-serif" font-size="12" lengthAdjust="spacingAndGlyphs" textLength="60" x="599.15" y="260.2962">ウォレット</text><line style="stroke: #A80036; stroke-width: 1.5;" x1="558.5" x2="671.5" y1="268.7522" y2="268.7522"/><ellipse cx="568.5" cy="279.7522" fill="none" rx="3" ry="3" style="stroke: #038048; stroke-width: 1.0;"/><text fill="#000000" font-family="sans-serif" font-size="11" lengthAdjust="spacingAndGlyphs" textLength="34" x="577.5" y="285.5121">id [PK]</text><line style="stroke: #A80036; stroke-width: 1.0;" x1="558.5" x2="671.5" y1="292.6801" y2="292.6801"/><text fill="#000000" font-family="sans-serif" font-size="11" lengthAdjust="spacingAndGlyphs" textLength="103" x="563.5" y="309.44">user_id [ユーザーID]</text><text fill="#000000" font-family="sans-serif" font-size="11" lengthAdjust="spacingAndGlyphs" textLength="73" x="563.5" y="325.3679">balance [残高]</text><!--MD5=[42dff7dc659d7999f4fa6efcfdeeb567]
class supplies--><rect fill="#FEFECE" filter="url(#f1pvzi3vpqi51)" height="124.4638" id="supplies" style="stroke: #A80036; stroke-width: 1.5;" width="124" x="6" y="409"/><ellipse cx="41.7" cy="431.3761" fill="#ADD1B2" rx="11" ry="11" style="stroke: #A80036; stroke-width: 1.0;"/><path d="M38.3563,437.8761 L44.8406,437.8761 L44.8406,435.7667 L40.8875,435.7667 L40.8875,432.4074 L44.075,432.4074 L44.075,430.298 L40.8875,430.298 L40.8875,427.3605 L44.7,427.3605 L44.7,425.2511 L38.3563,425.2511 L38.3563,437.8761 Z "/><text fill="#000000" font-family="sans-serif" font-size="12" lengthAdjust="spacingAndGlyphs" textLength="46" x="60.3" y="427.9201">supplies</text><text fill="#000000" font-family="sans-serif" font-size="12" lengthAdjust="spacingAndGlyphs" textLength="24" x="71.3" y="445.2962">納品</text><line style="stroke: #A80036; stroke-width: 1.5;" x1="7" x2="129" y1="453.7522" y2="453.7522"/><ellipse cx="17" cy="464.7522" fill="none" rx="3" ry="3" style="stroke: #038048; stroke-width: 1.0;"/><text fill="#000000" font-family="sans-serif" font-size="11" lengthAdjust="spacingAndGlyphs" textLength="34" x="26" y="470.5121">id [PK]</text><line style="stroke: #A80036; stroke-width: 1.0;" x1="7" x2="129" y1="477.6801" y2="477.6801"/><text fill="#000000" font-family="sans-serif" font-size="11" lengthAdjust="spacingAndGlyphs" textLength="112" x="12" y="494.44">supplier_id [納品者ID]</text><text fill="#000000" font-family="sans-serif" font-size="11" lengthAdjust="spacingAndGlyphs" textLength="101" x="12" y="510.3679">product_id [商品ID]</text><text fill="#000000" font-family="sans-serif" font-size="11" lengthAdjust="spacingAndGlyphs" textLength="109" x="12" y="526.2958">created_at [作成日時]</text><!--MD5=[ff69a6cca6f7e52e5ea254e6cd5fc379]
class products--><rect fill="#FEFECE" filter="url(#f1pvzi3vpqi51)" height="140.3916" id="products" style="stroke: #A80036; stroke-width: 1.5;" width="106" x="165" y="401"/><ellipse cx="190.8" cy="423.3761" fill="#ADD1B2" rx="11" ry="11" style="stroke: #A80036; stroke-width: 1.0;"/><path d="M187.4563,429.8761 L193.9406,429.8761 L193.9406,427.7667 L189.9875,427.7667 L189.9875,424.4074 L193.175,424.4074 L193.175,422.298 L189.9875,422.298 L189.9875,419.3605 L193.8,419.3605 L193.8,417.2511 L187.4563,417.2511 L187.4563,429.8761 Z "/><text fill="#000000" font-family="sans-serif" font-size="12" lengthAdjust="spacingAndGlyphs" textLength="50" x="207.2" y="419.9201">products</text><text fill="#000000" font-family="sans-serif" font-size="12" lengthAdjust="spacingAndGlyphs" textLength="24" x="220.2" y="437.2962">商品</text><line style="stroke: #A80036; stroke-width: 1.5;" x1="166" x2="270" y1="445.7522" y2="445.7522"/><ellipse cx="176" cy="456.7522" fill="none" rx="3" ry="3" style="stroke: #038048; stroke-width: 1.0;"/><text fill="#000000" font-family="sans-serif" font-size="11" lengthAdjust="spacingAndGlyphs" textLength="34" x="185" y="462.5121">id [PK]</text><line style="stroke: #A80036; stroke-width: 1.0;" x1="166" x2="270" y1="469.6801" y2="469.6801"/><text fill="#000000" font-family="sans-serif" font-size="11" lengthAdjust="spacingAndGlyphs" textLength="72" x="171" y="486.44">name [商品名]</text><text fill="#000000" font-family="sans-serif" font-size="11" lengthAdjust="spacingAndGlyphs" textLength="58" x="171" y="502.3679">price [価格]</text><text fill="#000000" font-family="sans-serif" font-size="11" lengthAdjust="spacingAndGlyphs" textLength="94" x="171" y="518.2958">supply_id [納品ID]</text><text fill="#000000" font-family="sans-serif" font-size="11" lengthAdjust="spacingAndGlyphs" textLength="87" x="171" y="534.2237">order_id [注文ID]</text><!--MD5=[20acf304c87f522547e857e16520f091]
class orders--><rect fill="#FEFECE" filter="url(#f1pvzi3vpqi51)" height="156.3195" id="orders" style="stroke: #A80036; stroke-width: 1.5;" width="128" x="306" y="393"/><ellipse cx="347.55" cy="415.3761" fill="#ADD1B2" rx="11" ry="11" style="stroke: #A80036; stroke-width: 1.0;"/><path d="M344.2063,421.8761 L350.6906,421.8761 L350.6906,419.7667 L346.7375,419.7667 L346.7375,416.4074 L349.925,416.4074 L349.925,414.298 L346.7375,414.298 L346.7375,411.3605 L350.55,411.3605 L350.55,409.2511 L344.2063,409.2511 L344.2063,421.8761 Z "/><text fill="#000000" font-family="sans-serif" font-size="12" lengthAdjust="spacingAndGlyphs" textLength="37" x="367.45" y="411.9201">orders</text><text fill="#000000" font-family="sans-serif" font-size="12" lengthAdjust="spacingAndGlyphs" textLength="24" x="373.95" y="429.2962">注文</text><line style="stroke: #A80036; stroke-width: 1.5;" x1="307" x2="433" y1="437.7522" y2="437.7522"/><ellipse cx="317" cy="448.7522" fill="none" rx="3" ry="3" style="stroke: #038048; stroke-width: 1.0;"/><text fill="#000000" font-family="sans-serif" font-size="11" lengthAdjust="spacingAndGlyphs" textLength="34" x="326" y="454.5121">id [PK]</text><line style="stroke: #A80036; stroke-width: 1.0;" x1="307" x2="433" y1="461.6801" y2="461.6801"/><text fill="#000000" font-family="sans-serif" font-size="11" lengthAdjust="spacingAndGlyphs" textLength="101" x="312" y="478.44">product_id [商品ID]</text><text fill="#000000" font-family="sans-serif" font-size="11" lengthAdjust="spacingAndGlyphs" textLength="108" x="312" y="494.3679">orderer_id [注文者ID]</text><text fill="#000000" font-family="sans-serif" font-size="11" lengthAdjust="spacingAndGlyphs" textLength="109" x="312" y="510.2958">created_at [作成日時]</text><text fill="#000000" font-family="sans-serif" font-size="11" lengthAdjust="spacingAndGlyphs" textLength="116" x="312" y="526.2237">payment_id [支払いID]</text><text fill="#000000" font-family="sans-serif" font-size="11" lengthAdjust="spacingAndGlyphs" textLength="100" x="312" y="542.1516">delivery_id [配送ID]</text><!--MD5=[52eb7aca5120c0886d7e8733040e2634]
class payments--><rect fill="#FEFECE" filter="url(#f1pvzi3vpqi51)" height="140.3916" id="payments" style="stroke: #A80036; stroke-width: 1.5;" width="123" x="461.5" y="609"/><ellipse cx="492.25" cy="631.3761" fill="#ADD1B2" rx="11" ry="11" style="stroke: #A80036; stroke-width: 1.0;"/><path d="M488.9063,637.8761 L495.3906,637.8761 L495.3906,635.7667 L491.4375,635.7667 L491.4375,632.4074 L494.625,632.4074 L494.625,630.298 L491.4375,630.298 L491.4375,627.3605 L495.25,627.3605 L495.25,625.2511 L488.9063,625.2511 L488.9063,637.8761 Z "/><text fill="#000000" font-family="sans-serif" font-size="12" lengthAdjust="spacingAndGlyphs" textLength="56" x="509.75" y="627.9201">payments</text><text fill="#000000" font-family="sans-serif" font-size="12" lengthAdjust="spacingAndGlyphs" textLength="36" x="519.75" y="645.2962">支払い</text><line style="stroke: #A80036; stroke-width: 1.5;" x1="462.5" x2="583.5" y1="653.7522" y2="653.7522"/><ellipse cx="472.5" cy="664.7522" fill="none" rx="3" ry="3" style="stroke: #038048; stroke-width: 1.0;"/><text fill="#000000" font-family="sans-serif" font-size="11" lengthAdjust="spacingAndGlyphs" textLength="34" x="481.5" y="670.5121">id [PK]</text><line style="stroke: #A80036; stroke-width: 1.0;" x1="462.5" x2="583.5" y1="677.6801" y2="677.6801"/><text fill="#000000" font-family="sans-serif" font-size="11" lengthAdjust="spacingAndGlyphs" textLength="87" x="467.5" y="694.44">order_id [注文ID]</text><text fill="#000000" font-family="sans-serif" font-size="11" lengthAdjust="spacingAndGlyphs" textLength="110" x="467.5" y="710.3679">payer_id [支払い者ID]</text><text fill="#000000" font-family="sans-serif" font-size="11" lengthAdjust="spacingAndGlyphs" textLength="111" x="467.5" y="726.2958">receiver_id [受取者ID]</text><text fill="#000000" font-family="sans-serif" font-size="11" lengthAdjust="spacingAndGlyphs" textLength="73" x="467.5" y="742.2237">amount [金額]</text><!--MD5=[047e127ae53bb4573790e4382184e174]
class deliveries--><rect fill="#FEFECE" filter="url(#f1pvzi3vpqi51)" height="140.3916" id="deliveries" style="stroke: #A80036; stroke-width: 1.5;" width="153" x="469.5" y="401"/><ellipse cx="514.75" cy="423.3761" fill="#ADD1B2" rx="11" ry="11" style="stroke: #A80036; stroke-width: 1.0;"/><path d="M511.4063,429.8761 L517.8906,429.8761 L517.8906,427.7667 L513.9375,427.7667 L513.9375,424.4074 L517.125,424.4074 L517.125,422.298 L513.9375,422.298 L513.9375,419.3605 L517.75,419.3605 L517.75,417.2511 L511.4063,417.2511 L511.4063,429.8761 Z "/><text fill="#000000" font-family="sans-serif" font-size="12" lengthAdjust="spacingAndGlyphs" textLength="54" x="535.25" y="419.9201">deliveries</text><text fill="#000000" font-family="sans-serif" font-size="12" lengthAdjust="spacingAndGlyphs" textLength="24" x="550.25" y="437.2962">配送</text><line style="stroke: #A80036; stroke-width: 1.5;" x1="470.5" x2="621.5" y1="445.7522" y2="445.7522"/><ellipse cx="480.5" cy="456.7522" fill="none" rx="3" ry="3" style="stroke: #038048; stroke-width: 1.0;"/><text fill="#000000" font-family="sans-serif" font-size="11" lengthAdjust="spacingAndGlyphs" textLength="34" x="489.5" y="462.5121">id [PK]</text><line style="stroke: #A80036; stroke-width: 1.0;" x1="470.5" x2="621.5" y1="469.6801" y2="469.6801"/><text fill="#000000" font-family="sans-serif" font-size="11" lengthAdjust="spacingAndGlyphs" textLength="87" x="475.5" y="486.44">order_id [注文ID]</text><text fill="#000000" font-family="sans-serif" font-size="11" lengthAdjust="spacingAndGlyphs" textLength="141" x="475.5" y="502.3679">from_address_id [出発地ID]</text><text fill="#000000" font-family="sans-serif" font-size="11" lengthAdjust="spacingAndGlyphs" textLength="127" x="475.5" y="518.2958">to_address_id [到着地ID]</text><text fill="#000000" font-family="sans-serif" font-size="11" lengthAdjust="spacingAndGlyphs" textLength="96" x="475.5" y="534.2237">status [ステータス]</text><!--MD5=[cef382d5e5029f22c8421bd338b75e63]
link address to users--><path d="M458,172.35 C458,189.83 458,207.77 458,223.77 " fill="none" id="address-users" style="stroke: #A80036; stroke-width: 1.0;"/><line style="stroke: #A80036; stroke-width: 1.0;" x1="462" x2="454" y1="227.95" y2="227.95"/><line style="stroke: #A80036; stroke-width: 1.0;" x1="462" x2="454" y1="224.95" y2="224.95"/><line style="stroke: #A80036; stroke-width: 1.0;" x1="458" x2="458" y1="223.95" y2="231.95"/><line style="stroke: #A80036; stroke-width: 1.0;" x1="458" x2="452" y1="172.21" y2="164.21"/><line style="stroke: #A80036; stroke-width: 1.0;" x1="458" x2="464" y1="172.21" y2="164.21"/><line style="stroke: #A80036; stroke-width: 1.0;" x1="458" x2="458" y1="172.21" y2="164.21"/><ellipse cx="458" cy="178.21" fill="none" rx="4" ry="4" style="stroke: #A80036; stroke-width: 1.0;"/><!--MD5=[26c1d47ea0f99f7b8c5365a9c85173b9]
link roles to users--><path d="M366.63,278.5 C373.03,278.5 379.44,278.5 385.84,278.5 " fill="none" id="roles-users" style="stroke: #A80036; stroke-width: 1.0;"/><line style="stroke: #A80036; stroke-width: 1.0;" x1="389.95" x2="389.95" y1="274.5" y2="282.5"/><line style="stroke: #A80036; stroke-width: 1.0;" x1="386.95" x2="386.95" y1="274.5" y2="282.5"/><line style="stroke: #A80036; stroke-width: 1.0;" x1="385.95" x2="393.95" y1="278.5" y2="278.5"/><line style="stroke: #A80036; stroke-width: 1.0;" x1="366.62" x2="358.6307" y1="278.4857" y2="284.5"/><line style="stroke: #A80036; stroke-width: 1.0;" x1="366.62" x2="358.6093" y1="278.4857" y2="272.5"/><line style="stroke: #A80036; stroke-width: 1.0;" x1="366.62" x2="358.62" y1="278.4857" y2="278.5"/><ellipse cx="372.62" cy="278.475" fill="none" rx="4" ry="4" style="stroke: #A80036; stroke-width: 1.0;"/><!--MD5=[3ba4ef3df89f99ddbf833bf01792b9b6]
link users to wallets--><path d="M529.24,278.5 C536.25,278.5 543.27,278.5 550.28,278.5 " fill="none" id="users-wallets" style="stroke: #A80036; stroke-width: 1.0;"/><line style="stroke: #A80036; stroke-width: 1.0;" x1="553.29" x2="553.29" y1="274.5" y2="282.5"/><line style="stroke: #A80036; stroke-width: 1.0;" x1="550.29" x2="550.29" y1="274.5" y2="282.5"/><line style="stroke: #A80036; stroke-width: 1.0;" x1="549.29" x2="557.29" y1="278.5" y2="278.5"/><line style="stroke: #A80036; stroke-width: 1.0;" x1="526.09" x2="526.09" y1="282.5" y2="274.5"/><line style="stroke: #A80036; stroke-width: 1.0;" x1="529.09" x2="529.09" y1="282.5" y2="274.5"/><line style="stroke: #A80036; stroke-width: 1.0;" x1="530.09" x2="522.09" y1="278.5" y2="278.5"/><!--MD5=[f44894528747bec27dc44aca2ad2b0fb]
link users to supplies--><path d="M386.55,327.95 C383.03,329.75 379.51,331.45 376,333 C279.81,375.63 238.6,341.23 147,393 C141.49,396.11 136.09,399.71 130.85,403.6 " fill="none" id="users-supplies" style="stroke: #A80036; stroke-width: 1.0;"/><line style="stroke: #A80036; stroke-width: 1.0;" x1="130.6279" x2="128.0103" y1="403.7696" y2="413.4209"/><line style="stroke: #A80036; stroke-width: 1.0;" x1="130.6279" x2="120.6297" y1="403.7696" y2="403.9591"/><line style="stroke: #A80036; stroke-width: 1.0;" x1="130.6279" x2="124.32" y1="403.7696" y2="408.69"/><ellipse cx="135.3588" cy="400.0792" fill="none" rx="4" ry="4" style="stroke: #A80036; stroke-width: 1.0;"/><line style="stroke: #A80036; stroke-width: 1.0;" x1="388.3169" x2="392.0875" y1="322.4775" y2="329.5331"/><line style="stroke: #A80036; stroke-width: 1.0;" x1="385.671" x2="389.4416" y1="323.8915" y2="330.9471"/><line style="stroke: #A80036; stroke-width: 1.0;" x1="386.6743" x2="393.73" y1="327.8906" y2="324.12"/><!--MD5=[fa3b22ffcbbae300940e875beb39074f]
link users to payments--><path d="M529.29,326.24 C532.9,328.54 536.49,330.8 540,333 C583.93,360.5 614.46,347.9 640,393 C674.16,453.33 664.96,484.32 640,549 C629.45,576.33 610.13,601.45 590.18,622.12 " fill="none" id="users-payments" style="stroke: #A80036; stroke-width: 1.0;"/><line style="stroke: #A80036; stroke-width: 1.0;" x1="590.1638" x2="588.8247" y1="622.1305" y2="632.0404"/><line style="stroke: #A80036; stroke-width: 1.0;" x1="590.1638" x2="580.2753" y1="622.1305" y2="623.6196"/><line style="stroke: #A80036; stroke-width: 1.0;" x1="590.1638" x2="584.55" y1="622.1305" y2="627.83"/><ellipse cx="594.3742" cy="617.8558" fill="none" rx="4" ry="4" style="stroke: #A80036; stroke-width: 1.0;"/><line style="stroke: #A80036; stroke-width: 1.0;" x1="523.5318" x2="527.8333" y1="327.3133" y2="320.5682"/><line style="stroke: #A80036; stroke-width: 1.0;" x1="526.0613" x2="530.3628" y1="328.9264" y2="322.1812"/><line style="stroke: #A80036; stroke-width: 1.0;" x1="529.0552" x2="522.31" y1="326.0915" y2="321.79"/><!--MD5=[4c502da0134721951f07b9613513a7bb]
link users to orders--><path d="M433.56,332.41 C426.01,348.75 417.5,367.17 409.22,385.1 " fill="none" id="users-orders" style="stroke: #A80036; stroke-width: 1.0;"/><line style="stroke: #A80036; stroke-width: 1.0;" x1="409.0488" x2="411.1356" y1="385.4893" y2="395.2691"/><line style="stroke: #A80036; stroke-width: 1.0;" x1="409.0488" x2="400.2444" y1="385.4893" y2="390.2309"/><line style="stroke: #A80036; stroke-width: 1.0;" x1="409.0488" x2="405.69" y1="385.4893" y2="392.75"/><ellipse cx="411.5679" cy="380.0437" fill="none" rx="4" ry="4" style="stroke: #A80036; stroke-width: 1.0;"/><line style="stroke: #A80036; stroke-width: 1.0;" x1="431.6117" x2="438.8749" y1="327.0849" y2="330.4383"/><line style="stroke: #A80036; stroke-width: 1.0;" x1="430.3542" x2="437.6174" y1="329.8087" y2="333.162"/><line style="stroke: #A80036; stroke-width: 1.0;" x1="433.5666" x2="436.92" y1="332.3933" y2="325.13"/><!--MD5=[0acf92d720b57044a2c7232d0c52d5f1]
link users to deliveries--><path d="M482.47,332.47 C491.19,351.34 501.19,372.99 510.63,393.44 " fill="none" id="users-deliveries" style="stroke: #A80036; stroke-width: 1.0;"/><line style="stroke: #A80036; stroke-width: 1.0;" x1="510.7312" x2="519.5356" y1="393.6493" y2="398.3909"/><line style="stroke: #A80036; stroke-width: 1.0;" x1="510.7312" x2="508.6444" y1="393.6493" y2="403.4291"/><line style="stroke: #A80036; stroke-width: 1.0;" x1="510.7312" x2="514.09" y1="393.6493" y2="400.91"/><ellipse cx="508.2121" cy="388.2037" fill="none" rx="4" ry="4" style="stroke: #A80036; stroke-width: 1.0;"/><line style="stroke: #A80036; stroke-width: 1.0;" x1="477.1251" x2="484.3883" y1="330.4383" y2="327.0849"/><line style="stroke: #A80036; stroke-width: 1.0;" x1="478.3826" x2="485.6458" y1="333.162" y2="329.8087"/><line style="stroke: #A80036; stroke-width: 1.0;" x1="482.4334" x2="479.08" y1="332.3933" y2="325.13"/><!--MD5=[e73727faabeb9f500ae420af64641bf1]
link supplies to products--><path d="M137.15,471 C143.92,471 150.68,471 157.45,471 " fill="none" id="supplies-products" style="stroke: #A80036; stroke-width: 1.0;"/><line style="stroke: #A80036; stroke-width: 1.0;" x1="160.7882" x2="160.7718" y1="466.9918" y2="474.9918"/><line style="stroke: #A80036; stroke-width: 1.0;" x1="157.7882" x2="157.7719" y1="466.9857" y2="474.9857"/><line style="stroke: #A80036; stroke-width: 1.0;" x1="156.78" x2="164.78" y1="470.9837" y2="471"/><line style="stroke: #A80036; stroke-width: 1.0;" x1="134.11" x2="134.11" y1="475" y2="467"/><line style="stroke: #A80036; stroke-width: 1.0;" x1="137.11" x2="137.11" y1="475" y2="467"/><line style="stroke: #A80036; stroke-width: 1.0;" x1="138.11" x2="130.11" y1="471" y2="471"/><!--MD5=[5cb7e3a788c7144725a0394a44e97c79]
link products to orders--><path d="M278.2,471 C284.98,471 291.76,471 298.54,471 " fill="none" id="products-orders" style="stroke: #A80036; stroke-width: 1.0;"/><line style="stroke: #A80036; stroke-width: 1.0;" x1="301.9" x2="301.9" y1="467" y2="475"/><line style="stroke: #A80036; stroke-width: 1.0;" x1="298.9" x2="298.9" y1="467" y2="475"/><line style="stroke: #A80036; stroke-width: 1.0;" x1="297.9" x2="305.9" y1="471" y2="471"/><line style="stroke: #A80036; stroke-width: 1.0;" x1="275.14" x2="275.14" y1="475" y2="467"/><line style="stroke: #A80036; stroke-width: 1.0;" x1="278.14" x2="278.14" y1="475" y2="467"/><line style="stroke: #A80036; stroke-width: 1.0;" x1="279.14" x2="271.14" y1="471" y2="471"/><!--MD5=[b8bac0f2b9a8def3bd79b8ab4a1fa567]
link orders to payments--><path d="M431.85,555.28 C443.6,571.09 455.82,587.54 467.35,603.07 " fill="none" id="orders-payments" style="stroke: #A80036; stroke-width: 1.0;"/><line style="stroke: #A80036; stroke-width: 1.0;" x1="472.3952" x2="465.9737" y1="603.1537" y2="607.9248"/><line style="stroke: #A80036; stroke-width: 1.0;" x1="470.606" x2="464.1845" y1="600.7456" y2="605.5168"/><line style="stroke: #A80036; stroke-width: 1.0;" x1="466.7988" x2="471.57" y1="602.3285" y2="608.75"/><line style="stroke: #A80036; stroke-width: 1.0;" x1="426.578" x2="433.0053" y1="554.8853" y2="550.122"/><line style="stroke: #A80036; stroke-width: 1.0;" x1="428.3643" x2="434.7916" y1="557.2956" y2="552.5322"/><line style="stroke: #A80036; stroke-width: 1.0;" x1="432.1734" x2="427.41" y1="555.7173" y2="549.29"/><!--MD5=[6771e3689eeabc4f2966e48ec4469968]
link orders to deliveries--><path d="M441.37,471 C448.18,471 454.99,471 461.8,471 " fill="none" id="orders-deliveries" style="stroke: #A80036; stroke-width: 1.0;"/><line style="stroke: #A80036; stroke-width: 1.0;" x1="465.19" x2="465.19" y1="467" y2="475"/><line style="stroke: #A80036; stroke-width: 1.0;" x1="462.19" x2="462.19" y1="467" y2="475"/><line style="stroke: #A80036; stroke-width: 1.0;" x1="461.19" x2="469.19" y1="471" y2="471"/><line style="stroke: #A80036; stroke-width: 1.0;" x1="438.28" x2="438.28" y1="475" y2="467"/><line style="stroke: #A80036; stroke-width: 1.0;" x1="441.28" x2="441.28" y1="475" y2="467"/><line style="stroke: #A80036; stroke-width: 1.0;" x1="442.28" x2="434.28" y1="471" y2="471"/><!--MD5=[f5afe03a598efcdc240b1e1dbfdeb353]
@startuml erd
entity users as "users\nユーザー" {
	+ id [PK]
	- -
	username [ユーザー名]
}

entity address as "addresses\n住所" {
	+ id [PK]
	- -
	user_id [ユーザーID]
	zip_code [郵便番号]
	prefecture [都道府県]
	city [市区町村]
	street [番地]
}

entity roles as "roles\nロール" {
	+ id [PK]
	- -
	role_name [ロール名]
}

entity wallets as "wallets\nウォレット" {
	+ id [PK]
	- -
	user_id [ユーザーID]
	balance [残高]
}

entity supplies as "supplies\n納品" {
	+ id [PK]
	- -
	supplier_id [納品者ID]
	product_id [商品ID]
	created_at [作成日時]
}

entity products as "products\n商品" {
	+ id [PK]
	- -
	name [商品名]
	price [価格]
	supply_id [納品ID]
	order_id [注文ID]
}

entity orders as "orders\n注文" {
	+ id [PK]
	- -
	product_id [商品ID]
	orderer_id [注文者ID]
	created_at [作成日時]
	payment_id [支払いID]
	delivery_id [配送ID]
}

entity payments as "payments\n支払い" {
	+ id [PK]
	- -
	order_id [注文ID]
	payer_id [支払い者ID]
	receiver_id [受取者ID]
	amount [金額]
}

entity deliveries as "deliveries\n配送" {
	+ id [PK]
	- -
	order_id [注文ID]
	from_address_id [出発地ID]
	to_address_id [到着地ID]
	status [ステータス]
}


users ||-u-o{ address
users ||-l-o{ roles
users ||-r-|| wallets
users ||-d-o{ supplies
users ||-d-o{ payments
users ||-d-o{ orders
users ||-d-o{ deliveries

supplies ||-|| products
products ||-|| orders
orders ||- -|| payments
orders ||-|| deliveries

@enduml

PlantUML version 1.2020.02(Sun Mar 01 19:22:07 JST 2020)
(GPL source distribution)
Java Runtime: OpenJDK Runtime Environment
JVM: OpenJDK 64-Bit Server VM
Java Version: 21.0.4+7-Ubuntu-1ubuntu224.04
Operating System: Linux
Default Encoding: UTF-8
Language: ja
Country: JP
--></g></svg>